{"title":"11-11-11 (2011) DVDRip AC3 5.1 h264 NL Subs","uid":6795161,"size":1473757035,"categoryP":"video","categoryS":"movies","magnet":"?xt=urn:btih:3967ec816a265319f4bc8379edf66ce23f5cf3ee&amp;dn=11-11-11+%282011%29+DVDRip+AC3+5.1+h264+NL+Subs&amp;tr=udp%3A%2F%2Ftracker.openbittorrent.com%3A80&amp;tr=udp%3A%2F%2Fopen.demonii.com%3A1337&amp;tr=udp%3A%2F%2Ftracker.coppersurfer.tk%3A6969&amp;tr=udp%3A%2F%2Fexodus.desync.com%3A6969","seeders":2,"leechers":0,"uploader":"NLUPPER002","files":-1,"time":1320419712,"description":"11-11-11 (2011) DVDRip AC3 5.1 h264 NL Subs\n.\n[IMG]http://img249.imageshack.us/img249/2350/73328.jpg[/IMG]\n.\nVerenigde Staten / Spanje\nHorror / Thriller\n95 minuten\n\ngeregisseerd door Darren Lynn Bousman\nmet Timothy Gibbs, Michael Landes en Wendy Glenn\n\nNa de tragische dood van zijn vrouw en kind reist de beroemde Amerikaanse auteur Joseph Crone van de Verenigde Staten naar Barcelona om zich te herenigen met zijn vervreemde broer Samuel en zijn stervende vader Richard. Echter, het lot heeft een ander plan voor Joseph wanneer zijn leven wordt geplaagd door vreemde gebeurtenissen en de constante waarnemingen van het getal 11. De nieuwsgierigheid slaat al snel om in een obsessie en Joseph begint zich te realiseren dat het getal een angstaanjagende betekenis heeft, niet alleen voor zichzelf maar mogelijk voor elke religie. Hij zit geÃ‚Â´soleerd in een vreemd land met alleen de steun van zijn metgezel Sadie en hij beseft al snel dat 11/11/11 meer is dan alleen een datum, het is een waarschuwing!\n\nVanaf 11 november in de bioscoop\nVanaf 8 november te koop op DVD en Blu-Ray\n. &lt;a href=&quot;\nhttp://www.moviemeter.nl/film/73328&quot; rel=&quot;nofollow&quot; target=&quot;_NEW&quot;&gt;\nhttp://www.moviemeter.nl/film/73328&lt;/a&gt;\n.\nPLOT\n.\nAfter his death of his wife and child, an author travels to Barcelona to see his estranged brother and dying father, where he learns that his life is plagued by events that occur on 11/11/11. \n. &lt;a href=&quot;\nhttp://www.imdb.com/title/tt1712159/&quot; rel=&quot;nofollow&quot; target=&quot;_NEW&quot;&gt;\nhttp://www.imdb.com/title/tt1712159/&lt;/a&gt;\n.\nINFO\n.\nSource: Retail DVD\nVideo: 720x300\nAudio: AC3 5.1 English\nSubs: NL Subs (Selectable vobsubs)\n.\nEnjoy\n.\nFormat                           : AVI\nFormat/Info                      : Audio Video Interleave\nFormat profile                   : OpenDML\nFile size                        : 1.37 GiB\nDuration                         : 1h 32mn\nOverall bit rate                 : 2 111 Kbps\nMovie name                       : DVD.Title1.DVDRip\nWriting application              : Lavf52.78.4\nOriginal source form/Name        : DVD\n\nVideo\nID                               : 0\nFormat                           : AVC\nFormat/Info                      : Advanced Video Codec\nCodec ID                         : H264\nDuration                         : 1h 32mn\nBit rate                         : 1 650 Kbps\nWidth                            : 720 pixels\nHeight                           : 300 pixels\nDisplay aspect ratio             : 2.40:1\nFrame rate                       : 25.000 fps\nColor space                      : YUV\nChroma subsampling               : 4:2:0\nBits/(Pixel*Frame)               : 0.306\nStream size                      : 1.07 GiB (78%)\n\nAudio\nID                               : 1\nFormat                           : AC-3\nFormat/Info                      : Audio Coding 3\nMode extension                   : CM (complete main)\nCodec ID                         : 2000\nDuration                         : 1h 32mn\nBit rate mode                    : Constant\nBit rate                         : 448 Kbps\nChannel(s)                       : 6 channels\nChannel positions                : Front: L C R, Side: L R, LFE\nSampling rate                    : 48.0 KHz\nBit depth                        : 16 bits\nStream size                      : 298 MiB (21%)\nAlignment                        : Aligned on interleaves\nInterleave, duration             : 32 ms (0.80 video frame)\nInterleave, preload duration     : 32 ms\n\n\n","torrent":{"xt":"urn:btih:3967ec816a265319f4bc8379edf66ce23f5cf3ee","amp;dn":"11-11-11+%282011%29+DVDRip+AC3+5.1+h264+NL+Subs","amp;tr":["udp%3A%2F%2Ftracker.openbittorrent.com%3A80","udp%3A%2F%2Fopen.demonii.com%3A1337","udp%3A%2F%2Ftracker.coppersurfer.tk%3A6969","udp%3A%2F%2Fexodus.desync.com%3A6969"],"infoHash":"3967ec816a265319f4bc8379edf66ce23f5cf3ee","infoHashBuffer":{"type":"Buffer","data":[57,103,236,129,106,38,83,25,244,188,131,121,237,246,108,226,63,92,243,238]},"announce":[],"urlList":[]}}